<svg id="Capa_1" enable-background="new 0 0 512 512" height="512" viewBox="0 0 512 512" width="512" xmlns="http://www.w3.org/2000/svg"><g><g><g><path d="m86.544 316.315h52.426v195.685h-71.724c-6.131 0-10.905-5.322-10.241-11.417l15.446-141.865c1.679-15.422 6.624-29.772 14.093-42.403z" fill="#ba5d4f"/><path d="m444.743 512h-71.724v-195.685h52.437c7.459 12.63 12.404 26.981 14.083 42.403l15.446 141.865c.663 6.095-4.111 11.417-10.242 11.417z" fill="#ba5d4f"/><g fill="#a34f41"><path d="m86.544 316.315h52.426v195.685h-10.302v-84.527l-61.894-16.658 5.676-52.097c1.68-15.422 6.625-29.772 14.094-42.403z"/><path d="m445.215 410.815-61.894 16.658v84.527h-10.302v-195.685h52.437c7.459 12.63 12.404 26.981 14.083 42.403z"/><path d="m425.452 316.319h-35.332c7.467 12.624 12.412 26.974 14.093 42.4l16.696 153.281h23.837c6.131 0 10.905-5.322 10.241-11.417l-15.442-141.864c-1.681-15.427-6.626-29.776-14.093-42.4z"/></g><path d="m86.544 316.315h52.426v195.685h-10.302v-109.561l-58.998-18.265 2.782-25.446c1.678-15.432 6.623-29.793 14.092-42.413z" fill="#fb4a59"/><path d="m442.32 384.174-58.999 18.265v109.561h-10.302v-195.685h52.426c7.469 12.62 12.414 26.981 14.103 42.413z" fill="#fb4a59"/><path d="m442.319 384.177-34.179 10.586-3.927-36.039c-1.683-15.427-6.628-29.785-14.098-42.407h35.332c7.47 12.622 12.415 26.98 14.098 42.407z" fill="#f82f40"/></g><path d="m289.625 466.898v45.102h-67.251v-45.102c0-18.533 15.082-33.625 33.625-33.625s33.626 15.092 33.626 33.625z" fill="#f8f3f1"/><path d="m458.226 343.822c-1.154 2.998-3.585 5.326-6.655 6.274l-60.987 18.883c-4.316 1.339-7.263 5.326-7.263 9.838v133.183h-78.243v-45.102c0-27.053-22.015-49.078-49.078-49.078s-49.078 22.025-49.078 49.078v45.102h-78.253v-133.183c0-4.512-2.946-8.499-7.253-9.838l-60.987-18.883c-3.07-.948-5.501-3.276-6.655-6.274-18.564-48.336 9.158-79.943 27.671-94.654 7.994-6.367 18.616-8.417 28.454-5.656l50.15 14.072c15.875 4.45 32.276 6.717 48.759 6.717h94.386c16.483 0 32.884-2.266 48.759-6.717l50.15-14.072c9.838-2.761 20.46-.711 28.454 5.656 18.511 14.711 46.233 46.317 27.669 94.654z" fill="#f8f3f1"/><g><path d="m279.639 383.849h-47.294c-8.833 0-17.461-3.081-24.297-8.674l-11.408-9.335c-4.083-3.341-9.236-5.18-14.511-5.18h-56.553c-4.267 0-7.726-3.459-7.726-7.726s3.459-7.726 7.726-7.726h56.553c8.833 0 17.461 3.081 24.297 8.673l11.408 9.335c4.083 3.341 9.236 5.181 14.511 5.181h47.294c5.275 0 10.429-1.84 14.511-5.181l11.408-9.335c6.836-5.593 15.464-8.673 24.297-8.673h56.553c4.267 0 7.726 3.459 7.726 7.726s-3.459 7.726-7.726 7.726h-56.553c-5.275 0-10.429 1.84-14.511 5.18l-11.408 9.335c-6.835 5.593-15.464 8.674-24.297 8.674z" fill="#fb4a59"/></g><g><g><path d="m170.101 304.969h-18.449c-4.267 0-7.726-3.459-7.726-7.726s3.459-7.726 7.726-7.726h18.449c4.267 0 7.726 3.459 7.726 7.726.001 4.267-3.458 7.726-7.726 7.726z" fill="#fb4a59"/></g><g><path d="m197.837 328.891h-46.184c-4.267 0-7.726-3.459-7.726-7.726s3.459-7.726 7.726-7.726h46.184c4.267 0 7.726 3.459 7.726 7.726s-3.459 7.726-7.726 7.726z" fill="#fb4a59"/></g></g><path d="m458.226 343.822c-1.154 2.998-3.585 5.326-6.655 6.274l-25.827 7.994c.072-.165.144-.319.206-.484 19.471-50.675-9.601-83.816-29.01-99.248-6.377-5.069-14.33-7.531-22.314-7.139l27.475-7.706c9.838-2.761 20.459-.711 28.454 5.656 18.513 14.71 46.235 46.316 27.671 94.653z" fill="#e5e1e5"/><g><g><path d="m230.1 511.999v-45.096c0-14.281 11.619-25.9 25.9-25.9s25.9 11.619 25.9 25.9v45.096h30.906v-45.096c0-31.323-25.483-56.806-56.806-56.806s-56.805 25.483-56.805 56.806v45.096z" fill="#fb4a59"/></g></g></g><g><path d="m286.477 232.338v36.969c0 16.831-13.646 30.477-30.477 30.477s-30.477-13.646-30.477-30.477v-36.969z" fill="#ba5d4f"/></g><path d="m286.477 232.338v31.959c-9.441 3.7-19.724 5.719-30.477 5.719s-21.036-2.018-30.477-5.719v-31.959z" fill="#a34f41"/><g><g><g><g><g><g><path d="m255.996 244.674c-47.436 0-85.89-38.454-85.89-85.89v-46.05c0-47.436 38.454-85.89 85.89-85.89 47.436 0 85.89 38.454 85.89 85.89v46.05c0 47.436-38.454 85.89-85.89 85.89z" fill="#ba5d4f"/></g><path d="m341.891 112.739v37.878c-10.389-10.846-37.971-33.732-85.894-33.909-47.923.177-75.506 23.063-85.894 33.909v-37.878c0-47.435 38.459-85.894 85.894-85.894 23.718 0 45.191 9.62 60.733 25.162 15.541 15.541 25.161 37.014 25.161 60.732z" fill="#a34f41"/></g></g></g><g><g><path d="m212.954 144.812c-4.267 0-7.726-3.459-7.726-7.726v-2.11c0-4.267 3.459-7.726 7.726-7.726s7.726 3.459 7.726 7.726v2.11c.001 4.267-3.459 7.726-7.726 7.726z" fill="#554e55"/></g><g><path d="m299.038 144.812c-4.267 0-7.726-3.459-7.726-7.726v-2.11c0-4.267 3.459-7.726 7.726-7.726s7.726 3.459 7.726 7.726v2.11c0 4.267-3.459 7.726-7.726 7.726z" fill="#554e55"/></g></g><g><path d="m259.217 179.567h-13.581c-2.237 0-4.365-.97-5.833-2.659-1.467-1.689-2.13-3.932-1.817-6.147l5.206-36.865c.597-4.225 4.499-7.169 8.731-6.57 4.225.597 7.167 4.506 6.57 8.731l-3.962 28.058h4.687c4.267 0 7.726 3.459 7.726 7.726-.001 4.267-3.46 7.726-7.727 7.726z" fill="#a34f41"/></g></g></g><g><path d="m128.669 334.643v44.174c0-4.512-2.946-8.499-7.253-9.838l-8.2-2.534v-31.802c0-4.265 3.461-7.726 7.726-7.726s7.727 3.461 7.727 7.726z" fill="#dbd9db"/></g><g><path d="m398.774 334.643v31.802l-8.19 2.534c-4.316 1.339-7.263 5.326-7.263 9.838v-44.174c0-4.265 3.461-7.726 7.726-7.726 4.276-.001 7.727 3.461 7.727 7.726z" fill="#dbd9db"/></g><g><path d="m351.102 322.845h-25.407c-5.738 0-10.389-4.651-10.389-10.389v-7.335c0-5.738 4.651-10.389 10.389-10.389h25.407c5.738 0 10.389 4.651 10.389 10.389v7.335c0 5.738-4.651 10.389-10.389 10.389z" fill="#685e67"/></g><path d="m358.108 180.137c-1.466-4.007-5.905-6.069-9.909-4.603-.443.162-42.301 15.287-84.56 17.007-.516-3.767-3.738-6.671-7.646-6.671-3.912 0-7.137 2.91-7.648 6.682-43.709-1.659-83.868-16.76-84.446-16.979-3.984-1.523-8.452.472-9.976 4.458-1.392 3.64-3.345 30.93.045 46.77 2.952 13.798 14.945 24.041 29.166 24.911l65.87 4.027c1.234 2.625 3.895 4.447 6.988 4.447s5.753-1.821 6.988-4.446l65.878-4.028c14.22-.869 26.213-11.113 29.166-24.91 3.39-15.841 1.411-43.039.084-46.665zm-67.487 30.724c2.521 3.318 3.909 7.441 3.909 11.608v15.86l-30.812 1.884v-32.208c7.862-.296 15.667-1.016 23.205-2.01zm-69.242 0 3.624-4.77c7.492.956 15.303 1.645 23.262 1.924v32.196l-30.796-1.883v-15.86c.001-4.167 1.389-8.289 3.91-11.607zm-52.3 12.707c-2.697-12.603-.407-25.491-.344-25.84.283-1.504.103-2.985-.429-4.306 8.791 2.813 22.77 6.823 39.461 9.95-3.718 5.637-5.75 12.333-5.75 19.098v14.915l-17.94-1.097c-7.324-.449-13.492-5.679-14.998-12.72zm173.835 0c-1.507 7.041-7.674 12.272-14.998 12.72l-17.932 1.096v-14.915c0-6.827-2.07-13.584-5.854-19.254 16.605-3.153 30.754-7.15 39.608-9.915-.572 1.349-.77 2.874-.482 4.421.024.13 2.379 13.134-.342 25.847z" fill="#d1cfd1"/><path d="m243.566.789v94.87c-37.386 2.709-59.112 16.504-67.426 23.014-2.493 1.957-3.946 4.945-3.946 8.108v71.845c0 1.586-.649 3.018-1.679 4.069-1.051 1.03-2.483 1.679-4.069 1.679-11.538 0-20.903-9.364-20.903-20.903v-72.113c0-56.979 42.804-103.965 98.023-110.569z" fill="#f8f3f1"/><path d="m366.447 111.359v72.113c0 5.769-2.339 10.992-6.119 14.773-3.781 3.791-9.014 6.13-14.783 6.13-3.173 0-5.748-2.575-5.748-5.748v-71.845c0-3.163-1.453-6.15-3.946-8.108-8.314-6.511-30.04-20.305-67.426-23.014v-94.871c55.217 6.604 98.022 53.59 98.022 110.57z" fill="#f8f3f1"/><path d="m366.447 111.359v72.113c0 5.769-2.339 10.992-6.119 14.773-3.812 3.822-9.086 6.161-14.907 6.13-3.121-.021-5.625-2.627-5.625-5.748v-71.845c0-3.142-1.422-6.13-3.904-8.066-.484-.391-1.02-.793-1.597-1.226v-6.13c0-45.297-27.053-84.28-65.87-101.68v-8.891c55.217 6.604 98.022 53.59 98.022 110.57z" fill="#e5e1e5"/><path d="m278.727 2.525v94.205c-6.94-.945-14.513-1.506-22.731-1.538-8.217.031-15.791.592-22.731 1.538v-94.205c7.334-1.6 14.939-2.462 22.731-2.525 7.792.062 15.397.925 22.731 2.525z" fill="#fb4a59"/></g></svg>